# This file uses meters as units for non-parametric coordinates.

mtllib Coin.mtl
g default
v 2.284203 88.558075 -6.911376
v 2.284203 85.381271 -13.146219
v 2.284203 80.433266 -18.094219
v 2.284203 74.198425 -21.271029
v 2.284203 67.287048 -22.365683
v 2.284203 60.375671 -21.271027
v 2.284203 54.140831 -18.094215
v 2.284203 49.192833 -13.146215
v 2.284203 46.016026 -6.911374
v 2.284203 44.921371 0.000000
v 2.284203 46.016026 6.911374
v 2.284203 49.192837 13.146214
v 2.284203 54.140835 18.094212
v 2.284203 60.375675 21.271021
v 2.284203 67.287048 22.365673
v 2.284203 74.198418 21.271019
v 2.284203 80.433258 18.094210
v 2.284203 85.381256 13.146213
v 2.284203 88.558067 6.911373
v 2.284203 89.652718 0.000000
v -2.284203 88.558075 -6.911376
v -2.284203 85.381271 -13.146219
v -2.284203 80.433266 -18.094219
v -2.284203 74.198425 -21.271029
v -2.284203 67.287048 -22.365683
v -2.284203 60.375671 -21.271027
v -2.284203 54.140831 -18.094215
v -2.284203 49.192833 -13.146215
v -2.284203 46.016026 -6.911374
v -2.284203 44.921371 0.000000
v -2.284203 46.016026 6.911374
v -2.284203 49.192837 13.146214
v -2.284203 54.140835 18.094212
v -2.284203 60.375675 21.271021
v -2.284203 67.287048 22.365673
v -2.284203 74.198418 21.271019
v -2.284203 80.433258 18.094210
v -2.284203 85.381256 13.146213
v -2.284203 88.558067 6.911373
v -2.284203 89.652718 0.000000
v 2.284203 67.287048 0.000000
v -2.284203 67.287048 0.000000
vt 0.650856 0.536576
vt 0.646061 0.527165
vt 0.638592 0.519697
vt 0.629182 0.514902
vt 0.618750 0.513250
vt 0.608318 0.514902
vt 0.598907 0.519697
vt 0.591439 0.527165
vt 0.586644 0.536576
vt 0.584991 0.547008
vt 0.586644 0.557440
vt 0.591439 0.566851
vt 0.598907 0.574319
vt 0.608318 0.579114
vt 0.618750 0.580766
vt 0.629182 0.579114
vt 0.638592 0.574319
vt 0.646061 0.566851
vt 0.650856 0.557440
vt 0.652508 0.547008
vt 0.591743 0.580766
vt 0.594444 0.580766
vt 0.597144 0.580766
vt 0.599845 0.580766
vt 0.602546 0.580766
vt 0.605246 0.580766
vt 0.607947 0.580766
vt 0.610648 0.580766
vt 0.613348 0.580766
vt 0.616049 0.580766
vt 0.618750 0.580766
vt 0.621450 0.580766
vt 0.624151 0.580766
vt 0.626852 0.580766
vt 0.629552 0.580766
vt 0.632253 0.580766
vt 0.634954 0.580766
vt 0.637654 0.580766
vt 0.640355 0.580766
vt 0.643056 0.580766
vt 0.645756 0.580766
vt 0.591743 0.661989
vt 0.594444 0.661989
vt 0.597144 0.661989
vt 0.599845 0.661989
vt 0.602546 0.661989
vt 0.605246 0.661989
vt 0.607947 0.661989
vt 0.610648 0.661989
vt 0.613348 0.661989
vt 0.616049 0.661989
vt 0.618750 0.661989
vt 0.621450 0.661989
vt 0.624151 0.661989
vt 0.626852 0.661989
vt 0.629552 0.661989
vt 0.632253 0.661989
vt 0.634954 0.661989
vt 0.637654 0.661989
vt 0.640355 0.661989
vt 0.643056 0.661989
vt 0.645756 0.661989
vt 0.650856 0.685113
vt 0.646061 0.675702
vt 0.638592 0.668234
vt 0.629182 0.663438
vt 0.618750 0.661786
vt 0.608318 0.663438
vt 0.598907 0.668234
vt 0.591439 0.675702
vt 0.586644 0.685113
vt 0.584991 0.695545
vt 0.586644 0.705976
vt 0.591439 0.715387
vt 0.598907 0.722856
vt 0.608318 0.727651
vt 0.618750 0.729303
vt 0.629182 0.727651
vt 0.638592 0.722856
vt 0.646061 0.715387
vt 0.650856 0.705976
vt 0.652508 0.695545
vt 0.618750 0.545658
vt 0.618750 0.694194
vn 0.000000 0.951057 -0.309016
vn 0.000000 0.809017 -0.587785
vn 0.000000 0.809017 -0.587785
vn 0.000000 0.951057 -0.309016
vn 0.000000 0.587785 -0.809017
vn 0.000000 0.587785 -0.809017
vn 0.000000 0.309017 -0.951057
vn 0.000000 0.309017 -0.951057
vn 0.000000 -0.000000 -1.000000
vn 0.000000 -0.000000 -1.000000
vn 0.000000 -0.309017 -0.951056
vn 0.000000 -0.309017 -0.951056
vn 0.000000 -0.587785 -0.809017
vn 0.000000 -0.587785 -0.809017
vn 0.000000 -0.809017 -0.587785
vn 0.000000 -0.809017 -0.587785
vn 0.000000 -0.951057 -0.309017
vn 0.000000 -0.951057 -0.309017
vn 0.000000 -1.000000 0.000000
vn 0.000000 -1.000000 0.000000
vn 0.000000 -0.951057 0.309017
vn 0.000000 -0.951057 0.309017
vn 0.000000 -0.809017 0.587785
vn 0.000000 -0.809017 0.587785
vn 0.000000 -0.587785 0.809017
vn 0.000000 -0.587785 0.809017
vn 0.000000 -0.309017 0.951057
vn 0.000000 -0.309017 0.951057
vn 0.000000 0.000000 1.000000
vn 0.000000 0.000000 1.000000
vn 0.000000 0.309017 0.951057
vn 0.000000 0.309017 0.951057
vn 0.000000 0.587785 0.809017
vn 0.000000 0.587785 0.809017
vn 0.000000 0.809017 0.587785
vn 0.000000 0.809017 0.587785
vn 0.000000 0.951057 0.309017
vn 0.000000 0.951057 0.309017
vn 0.000000 1.000000 0.000001
vn 0.000000 1.000000 0.000001
vn 1.000000 0.000000 0.000000
vn 1.000000 0.000000 0.000000
vn 1.000000 0.000000 0.000000
vn 1.000000 -0.000000 0.000000
vn 1.000000 -0.000000 0.000000
vn 1.000000 0.000000 0.000000
vn 1.000000 0.000000 0.000000
vn 1.000000 0.000000 0.000000
vn 1.000000 0.000000 0.000000
vn 1.000000 0.000000 0.000000
vn 1.000000 0.000000 0.000000
vn 1.000000 0.000000 0.000000
vn 1.000000 0.000000 0.000000
vn 1.000000 0.000000 0.000000
vn 1.000000 0.000000 0.000000
vn 1.000000 0.000000 0.000000
vn 1.000000 -0.000000 0.000000
vn 1.000000 -0.000000 0.000000
vn 1.000000 0.000000 0.000000
vn 1.000000 0.000000 0.000000
vn 1.000000 0.000000 0.000000
vn -1.000000 0.000000 0.000000
vn -1.000000 0.000000 0.000000
vn -1.000000 0.000000 0.000000
vn -1.000000 -0.000000 0.000000
vn -1.000000 -0.000000 0.000000
vn -1.000000 0.000000 0.000000
vn -1.000000 0.000000 0.000000
vn -1.000000 0.000000 0.000000
vn -1.000000 0.000000 0.000000
vn -1.000000 0.000000 0.000000
vn -1.000000 0.000000 0.000000
vn -1.000000 -0.000000 0.000000
vn -1.000000 -0.000000 0.000000
vn -1.000000 0.000000 0.000000
vn -1.000000 0.000000 0.000000
vn -1.000000 0.000000 0.000000
vn -1.000000 -0.000000 0.000000
vn -1.000000 -0.000000 0.000000
vn -1.000000 0.000000 0.000000
vn -1.000000 0.000000 0.000000
vn -1.000000 0.000000 0.000000
s 1
g Coin
usemtl initialShadingGroup
f 1/21/1 2/22/2 22/43/3 21/42/4
f 2/22/2 3/23/5 23/44/6 22/43/3
f 3/23/5 4/24/7 24/45/8 23/44/6
f 4/24/7 5/25/9 25/46/10 24/45/8
f 5/25/9 6/26/11 26/47/12 25/46/10
f 6/26/11 7/27/13 27/48/14 26/47/12
f 7/27/13 8/28/15 28/49/16 27/48/14
f 8/28/15 9/29/17 29/50/18 28/49/16
f 9/29/17 10/30/19 30/51/20 29/50/18
f 10/30/19 11/31/21 31/52/22 30/51/20
f 11/31/21 12/32/23 32/53/24 31/52/22
f 12/32/23 13/33/25 33/54/26 32/53/24
f 13/33/25 14/34/27 34/55/28 33/54/26
f 14/34/27 15/35/29 35/56/30 34/55/28
f 15/35/29 16/36/31 36/57/32 35/56/30
f 16/36/31 17/37/33 37/58/34 36/57/32
f 17/37/33 18/38/35 38/59/36 37/58/34
f 18/38/35 19/39/37 39/60/38 38/59/36
f 19/39/37 20/40/39 40/61/40 39/60/38
f 20/40/39 1/41/1 21/62/4 40/61/40
s 2
f 2/2/41 1/1/42 41/83/43
f 3/3/44 2/2/41 41/83/43
f 4/4/45 3/3/44 41/83/43
f 5/5/46 4/4/45 41/83/43
f 6/6/47 5/5/46 41/83/43
f 7/7/48 6/6/47 41/83/43
f 8/8/49 7/7/48 41/83/43
f 9/9/50 8/8/49 41/83/43
f 10/10/51 9/9/50 41/83/43
f 11/11/52 10/10/51 41/83/43
f 12/12/53 11/11/52 41/83/43
f 13/13/54 12/12/53 41/83/43
f 14/14/55 13/13/54 41/83/43
f 15/15/56 14/14/55 41/83/43
f 16/16/57 15/15/56 41/83/43
f 17/17/58 16/16/57 41/83/43
f 18/18/59 17/17/58 41/83/43
f 19/19/60 18/18/59 41/83/43
f 20/20/61 19/19/60 41/83/43
f 1/1/42 20/20/61 41/83/43
s 3
f 21/81/62 22/80/63 42/84/64
f 22/80/63 23/79/65 42/84/64
f 23/79/65 24/78/66 42/84/64
f 24/78/66 25/77/67 42/84/64
f 25/77/67 26/76/68 42/84/64
f 26/76/68 27/75/69 42/84/64
f 27/75/69 28/74/70 42/84/64
f 28/74/70 29/73/71 42/84/64
f 29/73/71 30/72/72 42/84/64
f 30/72/72 31/71/73 42/84/64
f 31/71/73 32/70/74 42/84/64
f 32/70/74 33/69/75 42/84/64
f 33/69/75 34/68/76 42/84/64
f 34/68/76 35/67/77 42/84/64
f 35/67/77 36/66/78 42/84/64
f 36/66/78 37/65/79 42/84/64
f 37/65/79 38/64/80 42/84/64
f 38/64/80 39/63/81 42/84/64
f 39/63/81 40/82/82 42/84/64
f 40/82/82 21/81/62 42/84/64
