# This file uses meters as units for non-parametric coordinates.

mtllib Door_Exit.mtl
g default
v 0.000000 0.000000 10.208984
v 200.000000 0.000000 10.208984
v 0.000000 300.000000 10.208984
v 200.000000 300.000000 10.208984
v 0.000000 300.000000 -10.208984
v 200.000000 300.000000 -10.208984
v 0.000000 0.000000 -10.208984
v 200.000000 0.000000 -10.208984
vt 0.001306 0.998864
vt 0.995937 1.001133
vt 0.998531 0.001136
vt 0.003899 -0.001133
vt 0.575322 0.650707
vt 0.575322 0.432632
vt 0.684360 0.432632
vt 0.684360 0.650707
vt 0.004730 -0.001784
vt 0.999357 0.001792
vt 0.995270 1.001784
vt 0.000643 0.998208
vt 0.462483 0.650707
vt 0.462483 0.432632
vt 0.571520 0.432632
vt 0.571520 0.650707
vt 0.624565 0.103045
vt 0.733603 0.103045
vt 0.733603 0.430159
vt 0.624565 0.430159
vt 0.688161 0.432632
vt 0.797199 0.432632
vt 0.797199 0.759745
vt 0.688161 0.759745
vn 0.000000 0.000000 1.000000
vn 0.000000 0.000000 1.000000
vn 0.000000 0.000000 1.000000
vn 0.000000 0.000000 1.000000
vn 0.000000 1.000000 0.000000
vn 0.000000 1.000000 0.000000
vn 0.000000 1.000000 0.000000
vn 0.000000 1.000000 0.000000
vn 0.000000 0.000000 -1.000000
vn 0.000000 0.000000 -1.000000
vn 0.000000 0.000000 -1.000000
vn 0.000000 0.000000 -1.000000
vn 0.000000 -1.000000 0.000000
vn 0.000000 -1.000000 0.000000
vn 0.000000 -1.000000 0.000000
vn 0.000000 -1.000000 0.000000
vn 1.000000 0.000000 0.000000
vn 1.000000 0.000000 0.000000
vn 1.000000 0.000000 0.000000
vn 1.000000 0.000000 0.000000
vn -1.000000 0.000000 0.000000
vn -1.000000 0.000000 0.000000
vn -1.000000 0.000000 0.000000
vn -1.000000 0.000000 0.000000
s off
g Door_Right Door_Exit
usemtl initialShadingGroup
f 1/1/1 2/2/2 4/3/3 3/4/4
f 3/5/5 4/6/6 6/7/7 5/8/8
f 5/9/9 6/10/10 8/11/11 7/12/12
f 7/13/13 8/14/14 2/15/15 1/16/16
f 2/17/17 8/18/18 6/19/19 4/20/20
f 7/21/21 1/22/22 3/23/23 5/24/24
g default
v 0.000000 0.000000 -10.208984
v -200.000000 0.000000 -10.208984
v 0.000000 300.000000 -10.208984
v -200.000000 300.000000 -10.208984
v 0.000000 300.000000 10.208984
v -200.000000 300.000000 10.208984
v 0.000000 0.000000 10.208984
v -200.000000 0.000000 10.208984
vt 0.001306 0.998864
vt 0.995937 1.001133
vt 0.998531 0.001136
vt 0.003899 -0.001133
vt 0.575322 0.650707
vt 0.575322 0.432632
vt 0.684360 0.432632
vt 0.684360 0.650707
vt 0.004730 -0.001784
vt 0.999357 0.001792
vt 0.995270 1.001784
vt 0.000643 0.998208
vt 0.462483 0.650707
vt 0.462483 0.432632
vt 0.571520 0.432632
vt 0.571520 0.650707
vt 0.624565 0.103045
vt 0.733603 0.103045
vt 0.733603 0.430159
vt 0.624565 0.430159
vt 0.688161 0.432632
vt 0.797199 0.432632
vt 0.797199 0.759745
vt 0.688161 0.759745
vn 0.000000 0.000000 -1.000000
vn 0.000000 0.000000 -1.000000
vn 0.000000 0.000000 -1.000000
vn 0.000000 0.000000 -1.000000
vn 0.000000 1.000000 0.000000
vn 0.000000 1.000000 0.000000
vn 0.000000 1.000000 0.000000
vn 0.000000 1.000000 0.000000
vn 0.000000 0.000000 1.000000
vn 0.000000 0.000000 1.000000
vn 0.000000 0.000000 1.000000
vn 0.000000 0.000000 1.000000
vn 0.000000 -1.000000 0.000000
vn 0.000000 -1.000000 0.000000
vn 0.000000 -1.000000 0.000000
vn 0.000000 -1.000000 0.000000
vn -1.000000 0.000000 0.000000
vn -1.000000 0.000000 0.000000
vn -1.000000 0.000000 0.000000
vn -1.000000 0.000000 0.000000
vn 1.000000 0.000000 0.000000
vn 1.000000 0.000000 0.000000
vn 1.000000 0.000000 0.000000
vn 1.000000 0.000000 0.000000
s off
g Door_Exit Door_Left
usemtl initialShadingGroup
f 9/25/25 10/26/26 12/27/27 11/28/28
f 11/29/29 12/30/30 14/31/31 13/32/32
f 13/33/33 14/34/34 16/35/35 15/36/36
f 15/37/37 16/38/38 10/39/39 9/40/40
f 10/41/41 16/42/42 14/43/43 12/44/44
f 15/45/45 9/46/46 11/47/47 13/48/48
g default
v -500.000000 0.000000 50.000000
v -199.811523 0.000000 50.000000
v 199.629089 0.000000 50.000000
v 500.000031 0.000000 50.000000
v -500.000000 300.377594 50.000000
v -199.811523 300.377594 50.000000
v 199.629089 300.377594 50.000000
v 500.000031 300.377594 50.000000
v -500.000000 400.000000 50.000000
v -199.811523 400.000000 50.000000
v 199.629089 400.000000 50.000000
v 500.000031 400.000000 50.000000
v -500.000000 400.000000 -50.000000
v -199.811523 400.000000 -50.000000
v 199.629089 400.000000 -50.000000
v 500.000031 400.000000 -50.000000
v -500.000000 300.377594 -50.000000
v -199.811523 300.377594 -50.000000
v 199.629089 300.377594 -50.000000
v 500.000031 300.377594 -50.000000
v -500.000000 0.000000 -50.000000
v -199.811523 0.000000 -50.000000
v 199.629089 0.000000 -50.000000
v 500.000031 0.000000 -50.000000
vt 0.779800 0.181089
vt 0.779800 0.130794
vt 0.830127 0.130794
vt 0.830127 0.181089
vt 0.846819 0.130794
vt 0.846819 0.181089
vt 0.830127 0.063869
vt 0.846819 0.063869
vt 0.830127 0.013543
vt 0.846819 0.013543
vt 0.779800 0.063869
vt 0.779800 0.013543
vt 0.848451 0.181089
vt 0.848451 0.130794
vt 0.865206 0.130794
vt 0.865206 0.181089
vt 0.848451 0.063869
vt 0.865206 0.063869
vt 0.848451 0.013543
vt 0.865206 0.013543
vt 0.866507 0.181089
vt 0.866507 0.130794
vt 0.883198 0.130794
vt 0.883198 0.181089
vt 0.866507 0.063869
vt 0.883198 0.063869
vt 0.933525 0.130794
vt 0.933525 0.181089
vt 0.866507 0.013543
vt 0.883198 0.013543
vt 0.933525 0.013543
vt 0.933525 0.063869
vt 0.896026 0.232206
vt 0.896026 0.181911
vt 0.912780 0.181911
vt 0.912780 0.232206
vt 0.914043 0.232237
vt 0.914043 0.181911
vt 0.930798 0.181911
vt 0.930798 0.232237
vt 0.935117 0.013543
vt 0.951872 0.013543
vt 0.951872 0.063870
vt 0.935117 0.063870
vt 0.951872 0.080562
vt 0.935117 0.080562
vt 0.953173 0.013543
vt 0.969927 0.013543
vt 0.969927 0.063870
vt 0.953173 0.063870
vt 0.969927 0.080562
vt 0.953173 0.080562
vt 0.968096 0.148308
vt 0.968096 0.081383
vt 0.984851 0.081383
vt 0.984851 0.148308
vt 0.966833 0.081383
vt 0.966833 0.131710
vt 0.950078 0.131710
vt 0.950078 0.081383
vt 0.932061 0.232238
vt 0.932061 0.181911
vt 0.948815 0.181911
vt 0.948815 0.232238
vn 0.000000 0.000000 1.000000
vn 0.000000 0.000000 1.000000
vn 0.000000 0.000000 1.000000
vn 0.000000 0.000000 1.000000
vn 0.000000 0.000000 1.000000
vn 0.000000 0.000000 1.000000
vn 0.000000 0.000000 1.000000
vn 0.000000 0.000000 1.000000
vn 0.000000 0.000000 1.000000
vn 0.000000 0.000000 1.000000
vn 0.000000 0.000000 1.000000
vn 0.000000 0.000000 1.000000
vn 0.000000 1.000000 0.000000
vn 0.000000 1.000000 0.000000
vn 0.000000 1.000000 0.000000
vn 0.000000 1.000000 0.000000
vn 0.000000 1.000000 0.000000
vn 0.000000 1.000000 0.000000
vn 0.000000 1.000000 0.000000
vn 0.000000 1.000000 0.000000
vn 0.000000 0.000000 -1.000000
vn 0.000000 0.000000 -1.000000
vn 0.000000 0.000000 -1.000000
vn 0.000000 0.000000 -1.000000
vn 0.000000 0.000000 -1.000000
vn 0.000000 0.000000 -1.000000
vn 0.000000 0.000000 -1.000000
vn 0.000000 0.000000 -1.000000
vn 0.000000 0.000000 -1.000000
vn 0.000000 0.000000 -1.000000
vn 0.000000 0.000000 -1.000000
vn 0.000000 0.000000 -1.000000
vn 0.000000 -1.000000 0.000000
vn 0.000000 -1.000000 0.000000
vn 0.000000 -1.000000 0.000000
vn 0.000000 -1.000000 0.000000
vn 0.000000 -1.000000 0.000000
vn 0.000000 -1.000000 0.000000
vn 0.000000 -1.000000 0.000000
vn 0.000000 -1.000000 0.000000
vn 1.000000 0.000000 0.000000
vn 1.000000 0.000000 0.000000
vn 1.000000 0.000000 0.000000
vn 1.000000 0.000000 0.000000
vn 1.000000 0.000000 0.000000
vn 1.000000 0.000000 0.000000
vn -1.000000 0.000000 0.000000
vn -1.000000 0.000000 0.000000
vn -1.000000 0.000000 0.000000
vn -1.000000 0.000000 0.000000
vn -1.000000 0.000000 0.000000
vn -1.000000 0.000000 0.000000
vn 0.000000 -1.000000 0.000000
vn 0.000000 -1.000000 0.000000
vn 0.000000 -1.000000 0.000000
vn 0.000000 -1.000000 0.000000
vn 1.000000 0.000000 0.000000
vn 1.000000 0.000000 0.000000
vn 1.000000 0.000000 0.000000
vn 1.000000 0.000000 0.000000
vn -1.000000 0.000000 0.000000
vn -1.000000 0.000000 0.000000
vn -1.000000 0.000000 0.000000
vn -1.000000 0.000000 0.000000
s 1
g Door_Exit Door_Frame
usemtl blinn1SG
f 17/49/49 18/50/50 22/51/51 21/52/52
f 19/59/53 20/60/54 24/57/55 23/55/56
f 21/52/52 22/51/51 26/53/57 25/54/58
f 22/51/51 23/55/56 27/56/59 26/53/57
f 23/55/56 24/57/55 28/58/60 27/56/59
s 3
f 25/61/61 26/62/62 30/63/63 29/64/64
f 26/62/62 27/65/65 31/66/66 30/63/63
f 27/65/65 28/67/67 32/68/68 31/66/66
s 4
f 29/69/69 30/70/70 34/71/71 33/72/72
f 30/70/70 31/73/73 35/74/74 34/71/71
f 31/73/73 32/77/75 36/78/76 35/74/74
f 33/72/72 34/71/71 38/75/77 37/76/78
f 35/74/74 36/78/76 40/79/79 39/80/80
s off
f 37/81/81 38/82/82 18/83/83 17/84/84
f 39/85/85 40/86/86 20/87/87 19/88/88
s 5
f 20/89/89 40/90/90 36/91/91 24/92/92
f 24/92/92 36/91/91 32/93/93 28/94/94
s 6
f 37/95/95 17/96/96 21/97/97 33/98/98
f 33/98/98 21/97/97 25/99/99 29/100/100
s off
f 34/101/101 35/102/102 23/103/103 22/104/104
f 38/105/105 34/106/106 22/107/107 18/108/108
f 35/109/109 39/110/110 19/111/111 23/112/112
