# This file uses meters as units for non-parametric coordinates.

mtllib Health_Cross.mtl
g default
v -6.530041 -6.522592 -3.096694
v -6.530041 -36.961422 -3.096694
v 6.530041 -36.961422 -3.096694
v 6.530041 -6.522592 -3.096694
v -6.530041 -6.522592 3.096694
v -6.530041 -36.961422 3.096694
v 6.530041 -36.961422 3.096694
v 6.530041 -6.522592 3.096694
v -36.961422 -6.522592 3.096694
v 36.961422 -6.522592 3.096694
v -36.961422 6.522592 3.096694
v -6.530041 6.522592 3.096694
v 6.530041 6.522592 3.096694
v 36.961422 6.522592 3.096694
v -6.530041 36.961422 3.096694
v 6.530041 36.961422 3.096694
v -6.530041 6.522592 -3.096694
v -6.530041 36.961422 -3.096694
v 6.530041 36.961422 -3.096694
v 6.530041 6.522592 -3.096694
v -36.961422 6.522592 -3.096694
v 36.961422 6.522592 -3.096694
v -36.961422 -6.522592 -3.096694
v 36.961422 -6.522592 -3.096694
vt 0.040452 0.518149
vt 0.069631 0.518149
vt 0.069631 0.589012
vt 0.040452 0.589012
vt 0.071123 0.518149
vt 0.083643 0.518149
vt 0.083643 0.589012
vt 0.071123 0.589012
vt 0.085047 0.518149
vt 0.114226 0.518149
vt 0.114226 0.589012
vt 0.085047 0.589012
vt 0.040452 0.703197
vt 0.040452 0.690677
vt 0.069631 0.690677
vt 0.069631 0.703197
vt 0.082136 0.690677
vt 0.082136 0.703197
vt 0.069631 0.661506
vt 0.082136 0.661506
vt 0.111315 0.690677
vt 0.111315 0.703197
vt 0.069631 0.732368
vt 0.082136 0.732368
vt 0.144857 0.589012
vt 0.115678 0.589012
vt 0.115678 0.518149
vt 0.144857 0.518149
vt 0.112893 0.661506
vt 0.125413 0.661506
vt 0.125413 0.732368
vt 0.112893 0.732368
vt 0.175489 0.589012
vt 0.146310 0.589012
vt 0.146310 0.518149
vt 0.175489 0.518149
vt 0.202063 0.589827
vt 0.214582 0.589827
vt 0.214582 0.619006
vt 0.202063 0.619006
vt 0.214582 0.631511
vt 0.202063 0.631511
vt 0.243754 0.619006
vt 0.243754 0.631511
vt 0.214582 0.660690
vt 0.202063 0.660690
vt 0.172891 0.619006
vt 0.172891 0.631511
vt 0.155989 0.732368
vt 0.126817 0.732368
vt 0.126817 0.661506
vt 0.155989 0.661506
vt 0.159133 0.589827
vt 0.171639 0.589827
vt 0.171639 0.660690
vt 0.159133 0.660690
vt 0.128708 0.589827
vt 0.157880 0.589827
vt 0.157880 0.660690
vt 0.128708 0.660690
vt 0.186620 0.732368
vt 0.157448 0.732368
vt 0.157448 0.661506
vt 0.186620 0.661506
vt 0.114951 0.589827
vt 0.127456 0.589827
vt 0.127456 0.660690
vt 0.114951 0.660690
vt 0.084526 0.589827
vt 0.113698 0.589827
vt 0.113698 0.660690
vt 0.084526 0.660690
vn -1.000000 0.000000 0.000000
vn -0.707107 -0.707107 0.000000
vn -0.707107 -0.707107 0.000000
vn -1.000000 0.000000 0.000000
vn 0.707107 -0.707107 0.000000
vn 0.707107 -0.707107 0.000000
vn 1.000000 0.000000 0.000000
vn 1.000000 0.000000 0.000000
vn 0.000000 0.000000 1.000000
vn 0.000000 0.000000 1.000000
vn 0.000000 0.000000 1.000000
vn 0.000000 0.000000 1.000000
vn 0.000000 0.000000 1.000000
vn -0.301511 0.301511 0.904534
vn -0.577350 0.577350 0.577350
vn 0.301511 0.301511 0.904534
vn 0.000000 0.000000 1.000000
vn 0.577350 0.577350 0.577350
vn 0.577350 0.577350 0.577350
vn -0.577350 0.577350 0.577350
vn -0.707107 0.707107 0.000000
vn -1.000000 0.000000 0.000000
vn 0.707107 0.707107 0.000000
vn 1.000000 0.000000 0.000000
vn 0.000000 0.000000 -1.000000
vn 0.000000 0.000000 -1.000000
vn 0.000000 0.000000 -1.000000
vn 0.000000 0.000000 -1.000000
vn 0.000000 0.000000 -1.000000
vn 0.000000 0.000000 -1.000000
vn 0.000000 0.000000 -1.000000
vn 0.000000 0.000000 -1.000000
vn 0.000000 0.000000 -1.000000
vn 0.000000 0.000000 -1.000000
vn 0.000000 0.000000 -1.000000
vn 0.000000 0.000000 -1.000000
vn 0.707107 0.707107 0.000000
vn 0.000000 1.000000 0.000000
vn 0.707107 -0.707107 0.000000
vn 0.707107 -0.707107 0.000000
vn 0.000000 -1.000000 0.000000
vn 0.000000 -1.000000 0.000000
vn 0.000000 1.000000 0.000000
vn -0.707107 0.707107 0.000000
vn -0.707107 -0.707107 0.000000
vn -0.707107 -0.707107 0.000000
vn 0.000000 -1.000000 0.000000
vn 0.000000 -1.000000 0.000000
s 1
g Health_Cross
usemtl initialShadingGroup
f 1/1/1 2/2/2 6/3/3 5/4/4
f 2/5/2 3/6/5 7/7/6 6/8/3
f 3/9/5 4/10/7 8/11/8 7/12/6
s 2
f 6/13/9 7/14/10 8/15/11 5/16/12
f 9/23/13 5/16/12 12/18/14 11/24/15
f 5/16/12 8/15/11 13/17/16 12/18/14
f 8/15/11 10/19/17 14/20/18 13/17/16
f 12/18/14 13/17/16 16/21/19 15/22/20
f 12/25/14 15/26/20 18/27/21 17/28/22
f 15/29/20 16/30/19 19/31/23 18/32/21
f 16/33/19 13/34/16 20/35/24 19/36/23
s 3
f 18/37/25 19/38/26 20/39/27 17/40/28
f 21/47/29 17/40/28 1/42/30 23/48/31
f 17/40/28 20/39/27 4/41/32 1/42/30
f 20/39/27 22/43/33 24/44/34 4/41/32
f 1/42/30 4/41/32 3/45/35 2/46/36
s 2
f 22/49/37 20/50/38 13/51/16 14/52/18
f 24/53/39 22/54/37 14/55/18 10/56/40
f 4/57/41 24/58/39 10/59/40 8/60/42
f 17/61/43 21/62/44 11/63/15 12/64/14
f 21/65/44 23/66/45 9/67/46 11/68/15
f 23/69/45 1/70/47 5/71/48 9/72/46
