# This file uses centimeters as units for non-parametric coordinates.

mtllib Chest_Bottom.mtl
g default
v -0.750000 0.002092 0.305012
v 0.750000 0.002092 0.305012
v -0.750000 0.801234 0.546428
v 0.750000 0.801234 0.546428
v -0.750000 0.801234 -0.546428
v 0.750000 0.801234 -0.546428
v -0.750000 0.002092 -0.305012
v 0.750000 0.002092 -0.305012
v -0.621265 0.801234 0.452635
v 0.621265 0.801234 0.452635
v 0.621265 0.801234 -0.452635
v -0.621265 0.801234 -0.452635
v -0.621265 0.128045 0.258271
v 0.621265 0.128045 0.258271
v 0.621265 0.128045 -0.258271
v -0.621265 0.128045 -0.258271
v -0.617789 0.085443 0.330192
v 0.617789 0.085443 0.330192
v 0.617789 0.717883 0.521248
v -0.617789 0.717883 0.521248
v -0.617789 0.717883 -0.521248
v 0.617789 0.717883 -0.521248
v 0.617789 0.085443 -0.330192
v -0.617789 0.085443 -0.330192
v -0.617789 0.102538 0.273604
v 0.617789 0.102538 0.273604
v 0.617789 0.734978 0.464661
v -0.617789 0.734978 0.464661
v -0.617789 0.734978 -0.464661
v 0.617789 0.734978 -0.464661
v 0.617789 0.102538 -0.273604
v -0.617789 0.102538 -0.273604
v 0.750000 0.105632 -0.236857
v 0.750000 0.105632 0.236857
v 0.750000 0.723628 -0.424329
v 0.750000 0.723628 0.424329
v -0.750000 0.105632 -0.236857
v -0.750000 0.105632 0.236857
v -0.750000 0.723628 0.424329
v -0.750000 0.723628 -0.424329
v 0.707634 0.105632 -0.236857
v 0.707634 0.105632 0.236857
v 0.707634 0.723628 -0.424329
v 0.707634 0.723628 0.424329
v -0.707634 0.105632 -0.236857
v -0.707634 0.105632 0.236857
v -0.707634 0.723628 0.424329
v -0.707634 0.723628 -0.424329
vt 0.919912 0.173427
vt 0.919912 0.126318
vt 0.956081 0.126318
vt 0.956081 0.173427
vt 0.060032 0.180753
vt 0.060032 0.133380
vt 0.089573 0.133380
vt 0.089573 0.180753
vt 0.945333 0.221388
vt 0.945333 0.174279
vt 0.981502 0.174279
vt 0.981502 0.221388
vt 0.172845 0.074592
vt 0.172845 0.017402
vt 0.207732 0.017402
vt 0.207732 0.074592
vt 0.771714 0.155476
vt 0.771714 0.128384
vt 0.807057 0.117663
vt 0.807057 0.166198
vt 0.772512 0.106089
vt 0.772512 0.078997
vt 0.807856 0.068276
vt 0.807856 0.116810
vt 0.067109 0.017402
vt 0.124298 0.017402
vt 0.119390 0.022766
vt 0.072017 0.022766
vt 0.124298 0.079902
vt 0.119390 0.074538
vt 0.067109 0.079902
vt 0.072017 0.074538
vt 0.091253 0.180753
vt 0.091253 0.133380
vt 0.129753 0.133380
vt 0.129753 0.180753
vt 0.138744 0.080755
vt 0.138744 0.132527
vt 0.100244 0.121411
vt 0.100244 0.091870
vt 0.169716 0.138797
vt 0.169716 0.186170
vt 0.131217 0.186170
vt 0.131217 0.138797
vt 0.098934 0.080755
vt 0.098934 0.132527
vt 0.060434 0.121411
vt 0.060434 0.091870
vt 0.187067 0.132634
vt 0.187067 0.075444
vt 0.191834 0.080485
vt 0.191834 0.127593
vt 0.232770 0.075444
vt 0.228004 0.080485
vt 0.232770 0.132634
vt 0.228004 0.127593
vt 0.140054 0.137945
vt 0.140054 0.080755
vt 0.144821 0.085795
vt 0.144821 0.132904
vt 0.185757 0.080755
vt 0.180990 0.085795
vt 0.185757 0.137945
vt 0.180990 0.132904
vt 0.192054 0.233866
vt 0.192054 0.186758
vt 0.195291 0.186758
vt 0.195291 0.233866
vt 0.135231 0.187023
vt 0.146158 0.223192
vt 0.142921 0.224170
vt 0.131995 0.188001
vt 0.190744 0.186758
vt 0.190744 0.233866
vt 0.187508 0.233866
vt 0.187508 0.186758
vt 0.116522 0.223192
vt 0.127448 0.187023
vt 0.130684 0.188001
vt 0.119758 0.224170
vt 0.178414 0.233866
vt 0.178414 0.186758
vt 0.181651 0.186758
vt 0.181651 0.233866
vt 0.162941 0.223192
vt 0.173868 0.187023
vt 0.177104 0.188001
vt 0.166177 0.224170
vt 0.186197 0.186758
vt 0.186197 0.233866
vt 0.182961 0.233866
vt 0.182961 0.186758
vt 0.150704 0.187023
vt 0.161631 0.223192
vt 0.158395 0.224170
vt 0.147468 0.188001
vt 0.125805 0.066095
vt 0.125805 0.031208
vt 0.131726 0.035106
vt 0.131726 0.062198
vt 0.171508 0.017402
vt 0.167069 0.024385
vt 0.171508 0.079902
vt 0.167069 0.072919
vt 0.020027 0.066095
vt 0.020027 0.031208
vt 0.025948 0.035106
vt 0.025948 0.062198
vt 0.065729 0.017402
vt 0.061291 0.024385
vt 0.065729 0.079902
vt 0.061291 0.072919
vt 0.103508 0.181606
vt 0.103508 0.208697
vt 0.101893 0.208697
vt 0.101893 0.181606
vt 0.115211 0.181606
vt 0.115211 0.216949
vt 0.113596 0.216949
vt 0.113596 0.181606
vt 0.022470 0.080755
vt 0.022470 0.129289
vt 0.020855 0.129289
vt 0.020855 0.080755
vt 0.112285 0.181606
vt 0.112285 0.216949
vt 0.110670 0.216949
vt 0.110670 0.181606
vt 0.098967 0.208697
vt 0.098967 0.181606
vt 0.100582 0.181606
vt 0.100582 0.208697
vt 0.107744 0.216949
vt 0.107744 0.181606
vt 0.109360 0.181606
vt 0.109360 0.216949
vt 0.020027 0.178676
vt 0.020027 0.130142
vt 0.021642 0.130142
vt 0.021642 0.178676
vt 0.104819 0.216949
vt 0.104819 0.181606
vt 0.106434 0.181606
vt 0.106434 0.216949
vn 0.000000 -0.289187 0.957273
vn 0.000000 -0.289187 0.957273
vn 0.000000 -0.289187 0.957273
vn 0.000000 -0.289187 0.957273
vn 0.000000 1.000000 0.000000
vn 0.000000 1.000000 0.000000
vn 0.000000 1.000000 0.000000
vn 0.000000 1.000000 0.000000
vn 0.000000 -0.289187 -0.957273
vn 0.000000 -0.289187 -0.957273
vn 0.000000 -0.289187 -0.957273
vn 0.000000 -0.289187 -0.957273
vn 0.000000 -1.000000 0.000000
vn 0.000000 -1.000000 0.000000
vn 0.000000 -1.000000 0.000000
vn 0.000000 -1.000000 0.000000
vn 1.000000 0.000000 0.000000
vn 1.000000 0.000000 0.000000
vn 1.000000 0.000000 0.000000
vn 1.000000 0.000000 0.000000
vn -1.000000 0.000000 0.000000
vn -1.000000 0.000000 0.000000
vn -1.000000 0.000000 0.000000
vn -1.000000 0.000000 0.000000
vn 0.000000 1.000000 0.000000
vn 0.000000 1.000000 0.000000
vn 0.000000 1.000000 0.000000
vn 0.000000 1.000000 0.000000
vn 0.000000 1.000000 0.000000
vn 0.000000 1.000000 0.000000
vn 0.000000 1.000000 0.000000
vn 0.000000 1.000000 0.000000
vn 0.000000 1.000000 -0.000000
vn 0.000000 1.000000 -0.000000
vn 0.000000 1.000000 -0.000000
vn 0.000000 1.000000 -0.000000
vn 0.000000 1.000000 0.000000
vn 0.000000 1.000000 0.000000
vn 0.000000 1.000000 0.000000
vn 0.000000 1.000000 0.000000
vn 0.000000 0.277392 -0.960757
vn 0.000000 0.277392 -0.960757
vn 0.000000 0.277392 -0.960757
vn 0.000000 0.277392 -0.960757
vn -1.000000 0.000000 0.000000
vn -1.000000 0.000000 0.000000
vn -1.000000 0.000000 0.000000
vn -1.000000 0.000000 0.000000
vn 0.000000 0.277392 0.960757
vn 0.000000 0.277392 0.960757
vn 0.000000 0.277392 0.960757
vn 0.000000 0.277392 0.960757
vn 1.000000 0.000000 0.000000
vn 1.000000 0.000000 0.000000
vn 1.000000 0.000000 0.000000
vn 1.000000 0.000000 0.000000
vn 0.000000 -0.289187 0.957273
vn -0.000000 -0.289187 0.957273
vn -0.000000 -0.289187 0.957273
vn 0.000000 -0.289187 0.957273
vn -0.000000 -0.289187 0.957273
vn -0.000000 -0.289187 0.957273
vn 0.000000 -0.289187 0.957273
vn 0.000000 -0.289187 0.957273
vn 0.000000 -0.289187 -0.957273
vn 0.000000 -0.289187 -0.957273
vn 0.000000 -0.289187 -0.957273
vn 0.000000 -0.289187 -0.957273
vn 0.000000 -0.289187 -0.957273
vn 0.000000 -0.289187 -0.957273
vn 0.000000 -0.289187 -0.957273
vn 0.000000 -0.289187 -0.957273
vn 0.000000 0.957273 0.289187
vn 0.000000 0.957273 0.289187
vn 0.000000 0.957273 0.289187
vn 0.000000 0.957273 0.289187
vn -1.000000 0.000000 0.000000
vn -1.000000 0.000000 0.000000
vn -1.000000 0.000000 0.000000
vn -1.000000 0.000000 0.000000
vn 0.000000 -0.957273 -0.289187
vn 0.000000 -0.957273 -0.289187
vn 0.000000 -0.957273 -0.289187
vn 0.000000 -0.957273 -0.289187
vn 1.000000 0.000000 0.000000
vn 1.000000 0.000000 0.000000
vn 1.000000 0.000000 0.000000
vn 1.000000 0.000000 0.000000
vn 0.000000 -0.957273 0.289187
vn 0.000000 -0.957273 0.289187
vn 0.000000 -0.957273 0.289187
vn 0.000000 -0.957273 0.289187
vn -1.000000 0.000000 0.000000
vn -1.000000 0.000000 0.000000
vn -1.000000 0.000000 0.000000
vn -1.000000 0.000000 0.000000
vn 0.000000 0.957273 -0.289187
vn 0.000000 0.957273 -0.289187
vn 0.000000 0.957273 -0.289187
vn 0.000000 0.957273 -0.289187
vn 1.000000 0.000000 0.000000
vn 1.000000 0.000000 0.000000
vn 1.000000 0.000000 0.000000
vn 1.000000 0.000000 0.000000
vn 1.000000 -0.000000 0.000000
vn 1.000000 -0.000000 0.000000
vn 1.000000 -0.000000 0.000000
vn 1.000000 -0.000000 0.000000
vn 1.000000 -0.000000 0.000000
vn 1.000000 -0.000000 0.000000
vn 1.000000 -0.000000 0.000000
vn 1.000000 -0.000000 0.000000
vn -1.000000 -0.000000 0.000000
vn -1.000000 -0.000000 0.000000
vn -1.000000 -0.000000 0.000000
vn -1.000000 -0.000000 0.000000
vn -1.000000 -0.000000 0.000000
vn -1.000000 -0.000000 0.000000
vn -1.000000 -0.000000 0.000000
vn -1.000000 -0.000000 0.000000
vn 0.000000 1.000000 0.000000
vn 0.000000 1.000000 0.000000
vn 0.000000 1.000000 0.000000
vn 0.000000 1.000000 0.000000
vn 0.000000 0.290291 0.956938
vn 0.000000 0.290291 0.956938
vn 0.000000 0.290291 0.956938
vn 0.000000 0.290291 0.956938
vn 0.000000 -1.000000 0.000000
vn 0.000000 -1.000000 0.000000
vn 0.000000 -1.000000 0.000000
vn 0.000000 -1.000000 0.000000
vn 0.000000 0.290291 -0.956938
vn 0.000000 0.290291 -0.956938
vn 0.000000 0.290291 -0.956938
vn 0.000000 0.290291 -0.956938
vn 0.000000 1.000000 0.000000
vn 0.000000 1.000000 0.000000
vn 0.000000 1.000000 0.000000
vn 0.000000 1.000000 0.000000
vn 0.000000 0.290291 -0.956938
vn 0.000000 0.290291 -0.956938
vn 0.000000 0.290291 -0.956938
vn 0.000000 0.290291 -0.956938
vn 0.000000 -1.000000 0.000000
vn 0.000000 -1.000000 0.000000
vn 0.000000 -1.000000 0.000000
vn 0.000000 -1.000000 0.000000
vn 0.000000 0.290291 0.956938
vn 0.000000 0.290291 0.956938
vn 0.000000 0.290291 0.956938
vn 0.000000 0.290291 0.956938
s off
g Chest_Bottom
usemtl initialShadingGroup
f 25/1/1 26/2/2 27/3/3 28/4/4
f 13/5/5 14/6/6 15/7/7 16/8/8
f 29/9/9 30/10/10 31/11/11 32/12/12
f 7/13/13 8/14/14 2/15/15 1/16/16
f 42/17/17 41/18/18 43/19/19 44/20/20
f 45/21/21 46/22/22 47/23/23 48/24/24
f 3/25/25 4/26/26 10/27/27 9/28/28
f 4/26/29 6/29/30 11/30/31 10/27/32
f 6/29/33 5/31/34 12/32/35 11/30/36
f 5/31/37 3/25/38 9/28/39 12/32/40
f 9/33/41 10/34/42 14/35/43 13/36/44
f 10/37/45 11/38/46 15/39/47 14/40/48
f 11/41/49 12/42/50 16/43/51 15/44/52
f 12/45/53 9/46/54 13/47/55 16/48/56
s 1
f 1/49/57 2/50/58 18/51/59 17/52/60
f 2/50/58 4/53/61 19/54/62 18/51/59
f 4/53/61 3/55/63 20/56/64 19/54/62
f 3/55/63 1/49/57 17/52/60 20/56/64
s 2
f 5/57/65 6/58/66 22/59/67 21/60/68
f 6/58/66 8/61/69 23/62/70 22/59/67
f 8/61/69 7/63/71 24/64/72 23/62/70
f 7/63/71 5/57/65 21/60/68 24/64/72
s off
f 17/65/73 18/66/74 26/67/75 25/68/76
f 18/69/77 19/70/78 27/71/79 26/72/80
f 19/73/81 20/74/82 28/75/83 27/76/84
f 20/77/85 17/78/86 25/79/87 28/80/88
f 21/81/89 22/82/90 30/83/91 29/84/92
f 22/85/93 23/86/94 31/87/95 30/88/96
f 23/89/97 24/90/98 32/91/99 31/92/100
f 24/93/101 21/94/102 29/95/103 32/96/104
s 3
f 2/97/105 8/98/106 33/99/107 34/100/108
f 8/98/106 6/101/109 35/102/110 33/99/107
f 6/101/109 4/103/111 36/104/112 35/102/110
f 4/103/111 2/97/105 34/100/108 36/104/112
s 4
f 7/105/113 1/106/114 38/107/115 37/108/116
f 1/106/114 3/109/117 39/110/118 38/107/115
f 3/109/117 5/111/119 40/112/120 39/110/118
f 5/111/119 7/105/113 37/108/116 40/112/120
s off
f 34/113/121 33/114/122 41/115/123 42/116/124
f 33/117/125 35/118/126 43/119/127 41/120/128
f 35/121/129 36/122/130 44/123/131 43/124/132
f 36/125/133 34/126/134 42/127/135 44/128/136
f 37/129/137 38/130/138 46/131/139 45/132/140
f 38/133/141 39/134/142 47/135/143 46/136/144
f 39/137/145 40/138/146 48/139/147 47/140/148
f 40/141/149 37/142/150 45/143/151 48/144/152
