# This file uses meters as units for non-parametric coordinates.

mtllib Vase_Broken.mtl
g default
v 19.493942 0.015230 -6.333956
v 16.582539 0.015230 -12.047909
v 12.047918 0.015230 -16.582527
v 6.333965 0.015230 -19.493931
v 0.000000 0.015230 -20.497131
v -6.333965 0.015230 -19.493931
v -12.047916 0.015230 -16.582523
v -16.582533 0.015230 -12.047905
v -19.493937 0.015230 -6.333953
v -20.497135 0.015230 0.000010
v -19.493937 0.015230 6.333973
v -16.582531 0.015230 12.047923
v -12.047914 0.015230 16.582541
v -6.333963 0.015230 19.493942
v -0.000001 0.015230 20.497143
v 6.333961 0.015230 19.493942
v 12.047911 0.015230 16.582539
v 16.582527 0.015230 12.047922
v 19.493931 0.015230 6.333972
v 20.497131 0.015230 0.000010
v 23.027969 12.047433 -7.482230
v 19.588762 12.047433 -14.232059
v 14.232068 12.047433 -19.588751
v 7.482240 12.047433 -23.027958
v 0.000000 12.047433 -24.213028
v -7.482239 12.047433 -23.027958
v -14.232065 12.047433 -19.588747
v -19.588753 12.047433 -14.232055
v -23.027960 12.047433 -7.482228
v -24.213028 12.047433 0.000010
v -23.027960 12.047433 7.482247
v -19.588751 12.047433 14.232073
v -14.232059 12.047433 19.588753
v -7.482237 12.047433 23.027962
v -0.000000 12.047433 24.213034
v 7.482236 12.047433 23.027960
v 14.232059 12.047433 19.588753
v 19.588747 12.047433 14.232072
v 23.027954 12.047433 7.482246
v 24.213024 12.047433 0.000010
v 0.000000 0.015230 0.000000
v 24.275894 20.114223 -7.887705
v 20.963955 22.497609 -15.231193
v 0.000000 17.245168 0.000009
v 15.280300 23.011134 -21.031517
v 7.767820 17.728961 -23.906883
v 0.000001 20.418900 -25.574734
v -8.180794 25.944953 -25.177889
v -15.045462 20.554946 -20.708294
v -20.768131 21.009614 -15.088922
v -24.376842 20.766844 -7.920506
v -26.130239 23.834046 0.000010
v -25.506413 28.068567 8.287546
v -21.248585 24.660666 15.438015
v -15.545915 25.789367 21.397121
v -7.846700 19.298297 24.149662
v -0.000000 19.298297 25.392462
v 7.967885 21.709248 24.522633
v 15.838871 28.853452 21.800339
v 21.834698 29.114604 15.863852
v 23.765139 16.812716 7.721771
v 25.479679 19.834563 0.000010
vt 0.372530 0.797796
vt 0.372530 0.787459
vt 0.394298 0.783507
vt 0.394298 0.795719
vt 0.372530 0.779255
vt 0.394298 0.773817
vt 0.413203 0.781700
vt 0.408892 0.794985
vt 0.372530 0.809255
vt 0.394298 0.809255
vt 0.414133 0.771206
vt 0.408386 0.809255
vt 0.372530 0.820714
vt 0.394298 0.822791
vt 0.402919 0.823225
vt 0.372530 0.831051
vt 0.394298 0.835003
vt 0.425174 0.837955
vt 0.372530 0.839255
vt 0.394298 0.844693
vt 0.424702 0.848694
vt 0.356636 0.871245
vt 0.356636 0.881582
vt 0.334868 0.879505
vt 0.334868 0.867293
vt 0.356636 0.893041
vt 0.334868 0.893041
vt 0.324590 0.878988
vt 0.315034 0.865397
vt 0.356636 0.904500
vt 0.334868 0.906577
vt 0.319723 0.893041
vt 0.356636 0.914837
vt 0.334868 0.918788
vt 0.309726 0.907841
vt 0.356636 0.923041
vt 0.334868 0.928479
vt 0.319477 0.920260
vt 0.318655 0.930613
vt 0.357899 0.925903
vt 0.357899 0.915566
vt 0.379667 0.917643
vt 0.379667 0.929855
vt 0.357899 0.904107
vt 0.379667 0.904107
vt 0.395442 0.918436
vt 0.395881 0.931405
vt 0.357899 0.892648
vt 0.379667 0.890571
vt 0.400991 0.904107
vt 0.357899 0.882311
vt 0.379667 0.878359
vt 0.408651 0.889114
vt 0.357899 0.874107
vt 0.379667 0.868668
vt 0.402486 0.876178
vt 0.404528 0.865397
vt 0.278982 0.981886
vt 0.278982 0.971548
vt 0.300750 0.973626
vt 0.300750 0.985837
vt 0.278982 0.960090
vt 0.300750 0.960090
vt 0.313867 0.974285
vt 0.325610 0.988214
vt 0.278982 0.948630
vt 0.300750 0.946553
vt 0.313867 0.960090
vt 0.278982 0.938293
vt 0.300750 0.934342
vt 0.318229 0.945675
vt 0.331154 0.931435
vt 0.476996 0.864802
vt 0.482264 0.875139
vt 0.446997 0.886598
vt 0.484078 0.886598
vt 0.468793 0.856598
vt 0.482264 0.898057
vt 0.458456 0.851331
vt 0.476996 0.908394
vt 0.446997 0.849516
vt 0.468793 0.916598
vt 0.435538 0.851331
vt 0.458456 0.921865
vt 0.425200 0.856598
vt 0.446997 0.923680
vt 0.416997 0.864802
vt 0.435538 0.921865
vt 0.411730 0.875139
vt 0.425200 0.916598
vt 0.409915 0.886598
vt 0.416997 0.908394
vt 0.411730 0.898057
vt 0.339190 0.773384
vt 0.352475 0.779376
vt 0.324920 0.817302
vt 0.362969 0.789658
vt 0.324920 0.771206
vt 0.368170 0.803249
vt 0.310950 0.774308
vt 0.371188 0.817302
vt 0.296220 0.777801
vt 0.370470 0.832102
vt 0.285480 0.788648
vt 0.362384 0.844521
vt 0.280555 0.802887
vt 0.352218 0.854874
vt 0.278982 0.817302
vt 0.339249 0.861403
vt 0.281230 0.831498
vt 0.324920 0.864575
vt 0.286210 0.845427
vt 0.309927 0.863446
vt 0.296991 0.855744
vn 0.908709 -0.295078 -0.295256
vn 0.772994 -0.295078 -0.561613
vn 0.787635 -0.228385 -0.572251
vn 0.925921 -0.228385 -0.300849
vn 0.561613 -0.295078 -0.772994
vn 0.572250 -0.228385 -0.787636
vn 0.295257 -0.295078 -0.908709
vn 0.300850 -0.228385 -0.925921
vn 0.000000 -0.295078 -0.955473
vn 0.000000 -0.228385 -0.973571
vn -0.295257 -0.295078 -0.908709
vn -0.300850 -0.228385 -0.925921
vn -0.561613 -0.295078 -0.772994
vn -0.572251 -0.228385 -0.787635
vn -0.772994 -0.295078 -0.561613
vn -0.787636 -0.228385 -0.572250
vn -0.908709 -0.295078 -0.295257
vn -0.925921 -0.228385 -0.300850
vn -0.955473 -0.295078 0.000000
vn -0.973571 -0.228385 -0.000000
vn -0.908709 -0.295078 0.295257
vn -0.925921 -0.228385 0.300850
vn -0.772994 -0.295078 0.561613
vn -0.787635 -0.228385 0.572251
vn -0.561613 -0.295077 0.772994
vn -0.572250 -0.228385 0.787636
vn -0.295258 -0.295077 0.908709
vn -0.300850 -0.228385 0.925921
vn 0.000000 -0.295078 0.955473
vn 0.000000 -0.228385 0.973571
vn 0.295258 -0.295077 0.908709
vn 0.300850 -0.228385 0.925921
vn 0.561613 -0.295078 0.772994
vn 0.572251 -0.228385 0.787636
vn 0.772994 -0.295078 0.561613
vn 0.787635 -0.228385 0.572251
vn 0.908709 -0.295078 0.295257
vn 0.925921 -0.228385 0.300850
vn 0.955473 -0.295078 0.000001
vn 0.973571 -0.228385 0.000001
vn 0.000000 -1.000000 0.000000
vn 0.000000 -1.000000 0.000000
vn 0.000000 -1.000000 -0.000000
vn 0.000000 -1.000000 0.000000
vn 0.000000 -1.000000 0.000000
vn 0.000000 -1.000000 0.000000
vn 0.000000 -1.000000 0.000000
vn 0.000000 -1.000000 0.000000
vn 0.000000 -1.000000 -0.000000
vn 0.000000 -1.000000 -0.000000
vn 0.000000 -1.000000 0.000000
vn 0.000000 -1.000000 0.000000
vn 0.000000 -1.000000 0.000000
vn 0.000000 -1.000000 -0.000000
vn 0.000000 -1.000000 -0.000000
vn 0.000000 -1.000000 0.000000
vn 0.000000 -1.000000 0.000000
vn 0.000000 -1.000000 0.000000
vn 0.000000 -1.000000 0.000000
vn 0.000000 -1.000000 0.000000
vn 0.000000 -1.000000 0.000000
vn -0.056318 0.981380 0.183634
vn -0.058536 0.965826 0.252495
vn 0.029205 0.999363 -0.020523
vn -0.330419 0.943650 0.018646
vn -0.125637 0.991859 -0.020750
vn 0.435790 0.893197 0.110842
vn 0.102212 0.950000 0.295045
vn -0.130152 0.959979 0.247993
vn 0.124984 0.989335 0.074798
vn 0.177069 0.978020 -0.110107
vn 0.225881 0.895800 -0.382780
vn 0.343177 0.926576 -0.153904
vn 0.285790 0.956026 -0.065863
vn 0.387099 0.918079 -0.085360
vn 0.330984 0.943240 0.027352
vn -0.143604 0.986416 -0.079758
vn -0.487895 0.872902 -0.000376
vn -0.496532 0.862415 -0.098469
vn -0.021302 0.814350 -0.579983
vn 0.108556 0.953639 -0.280693
vn -0.099067 0.974817 0.199796
vn 0.938719 -0.160550 0.305008
vn 0.798522 -0.160550 0.580160
vn 0.987028 -0.160550 0.000001
vn 0.938719 -0.160550 -0.305007
vn 0.798522 -0.160550 -0.580160
vn 0.580160 -0.160550 -0.798522
vn 0.305008 -0.160550 -0.938719
vn 0.000000 -0.160550 -0.987028
vn -0.305008 -0.160550 -0.938719
vn -0.580161 -0.160550 -0.798522
vn -0.798522 -0.160550 -0.580160
vn -0.938719 -0.160550 -0.305008
vn -0.987028 -0.160550 -0.000000
vn -0.938719 -0.160550 0.305008
vn -0.798522 -0.160550 0.580161
vn -0.580160 -0.160550 0.798523
vn -0.305009 -0.160550 0.938719
vn 0.000000 -0.160550 0.987028
vn 0.305009 -0.160550 0.938719
vn 0.580160 -0.160550 0.798522
s 1
g Vase_Broken
usemtl initialShadingGroup
f 1/1/1 2/2/2 22/3/3 21/4/4
f 2/2/2 3/5/5 23/6/6 22/3/3
f 3/22/5 4/23/7 24/24/8 23/25/6
f 4/23/7 5/26/9 25/27/10 24/24/8
f 5/26/9 6/30/11 26/31/12 25/27/10
f 6/30/11 7/33/13 27/34/14 26/31/12
f 7/33/13 8/36/15 28/37/16 27/34/14
f 8/40/15 9/41/17 29/42/18 28/43/16
f 9/41/17 10/44/19 30/45/20 29/42/18
f 10/44/19 11/48/21 31/49/22 30/45/20
f 11/48/21 12/51/23 32/52/24 31/49/22
f 12/51/23 13/54/25 33/55/26 32/52/24
f 13/58/25 14/59/27 34/60/28 33/61/26
f 14/59/27 15/62/29 35/63/30 34/60/28
f 15/62/29 16/66/31 36/67/32 35/63/30
f 16/66/31 17/69/33 37/70/34 36/67/32
f 17/19/33 18/16/35 38/17/36 37/20/34
f 18/16/35 19/13/37 39/14/38 38/17/36
f 19/13/37 20/9/39 40/10/40 39/14/38
f 20/9/39 1/1/1 21/4/4 40/10/40
s 2
f 2/73/41 1/74/42 41/75/43
f 3/77/44 2/73/41 41/75/43
f 4/79/45 3/77/44 41/75/43
f 5/81/46 4/79/45 41/75/43
f 6/83/47 5/81/46 41/75/43
f 7/85/48 6/83/47 41/75/43
f 8/87/49 7/85/48 41/75/43
f 9/89/50 8/87/49 41/75/43
f 10/91/51 9/89/50 41/75/43
f 11/93/52 10/91/51 41/75/43
f 12/92/53 11/93/52 41/75/43
f 13/90/54 12/92/53 41/75/43
f 14/88/55 13/90/54 41/75/43
f 15/86/56 14/88/55 41/75/43
f 16/84/57 15/86/56 41/75/43
f 17/82/58 16/84/57 41/75/43
f 18/80/59 17/82/58 41/75/43
f 19/78/60 18/80/59 41/75/43
f 20/76/61 19/78/60 41/75/43
f 1/74/42 20/76/61 41/75/43
s 3
f 42/94/62 43/95/63 44/96/64
f 43/95/63 45/97/65 44/96/64
f 45/97/65 46/99/66 44/96/64
f 46/99/66 47/101/67 44/96/64
f 47/101/67 48/103/68 44/96/64
f 48/103/68 49/105/69 44/96/64
f 49/105/69 50/107/70 44/96/64
f 50/107/70 51/109/71 44/96/64
f 51/109/71 52/111/72 44/96/64
f 52/111/72 53/113/73 44/96/64
f 53/113/73 54/114/74 44/96/64
f 54/114/74 55/112/75 44/96/64
f 55/112/75 56/110/76 44/96/64
f 56/110/76 57/108/77 44/96/64
f 57/108/77 58/106/78 44/96/64
f 58/106/78 59/104/79 44/96/64
f 59/104/79 60/102/80 44/96/64
f 60/102/80 61/100/81 44/96/64
f 61/100/81 62/98/82 44/96/64
f 62/98/82 42/94/62 44/96/64
s 1
f 38/17/36 39/14/38 61/15/83 60/18/84
f 39/14/38 40/10/40 62/12/85 61/15/83
f 40/10/40 21/4/4 42/8/86 62/12/85
f 21/4/4 22/3/3 43/7/87 42/8/86
f 22/3/3 23/6/6 45/11/88 43/7/87
f 23/25/6 24/24/8 46/28/89 45/29/88
f 24/24/8 25/27/10 47/32/90 46/28/89
f 25/27/10 26/31/12 48/35/91 47/32/90
f 26/31/12 27/34/14 49/38/92 48/35/91
f 27/34/14 28/37/16 50/39/93 49/38/92
f 28/43/16 29/42/18 51/46/94 50/47/93
f 29/42/18 30/45/20 52/50/95 51/46/94
f 30/45/20 31/49/22 53/53/96 52/50/95
f 31/49/22 32/52/24 54/56/97 53/53/96
f 32/52/24 33/55/26 55/57/98 54/56/97
f 33/61/26 34/60/28 56/64/99 55/65/98
f 34/60/28 35/63/30 57/68/100 56/64/99
f 35/63/30 36/67/32 58/71/101 57/68/100
f 36/67/32 37/70/34 59/72/102 58/71/101
f 37/20/34 38/17/36 60/18/84 59/21/102
